<svg width="42" height="58" viewBox="0 0 42 58" fill="none" xmlns="http://www.w3.org/2000/svg">
<path fill-rule="evenodd" clip-rule="evenodd" d="M2.70924 57.7943L3.34883 54.5592H5.86631L6.49174 57.7943H8.86682L6.18954 44.3349H3.29381L0.346497 57.7943H2.70924ZM5.14481 49.7445L5.63693 52.6596H3.6132L4.14275 49.7516C4.25451 49.1427 4.39696 48.2196 4.52199 47.4093C4.56192 47.1505 4.60007 46.9033 4.63488 46.6815H4.68828C4.73581 46.9977 4.7885 47.3626 4.84291 47.7396C4.94503 48.4469 5.05323 49.1963 5.14481 49.7445Z" fill="#C6C6C6"></path>
<path fill-rule="evenodd" clip-rule="evenodd" d="M16.6697 55.0031V43.9777H14.245V48.8935H14.2042C13.9287 48.2946 13.3815 47.8805 12.5358 47.8805C10.9191 47.8805 9.43581 49.5365 9.43581 52.942C9.43581 55.7368 10.4306 57.9502 12.4363 57.9502C13.3514 57.9502 14.117 57.3624 14.4688 56.6711H14.5185L14.6553 57.7923H16.7498C16.7142 56.952 16.6697 55.8769 16.6697 55.0031ZM14.209 51.201C14.2446 51.393 14.2446 51.6027 14.2446 51.7821V54.3563C14.2446 54.6032 14.2161 54.8146 14.1611 54.9726C13.9354 55.7651 13.5197 55.95 13.159 55.95C12.3702 55.95 11.8586 54.8751 11.8586 52.9867C11.8586 51.3432 12.2175 49.938 13.1928 49.938C13.7614 49.938 14.115 50.5366 14.209 51.201Z" fill="#C6C6C6"></path>
<path fill-rule="evenodd" clip-rule="evenodd" d="M18.0377 52.9442C18.0377 56.1561 19.4394 57.9505 21.6743 57.9505H21.6939C23.1525 57.9505 25.3181 56.9025 25.3181 52.8874C25.3181 49.7625 23.9359 47.8807 21.7312 47.8807C19.8373 47.8807 18.0377 49.4388 18.0377 52.9442ZM22.8752 52.9013C22.8752 54.3458 22.646 56.0904 21.7204 56.0904H21.699C20.7113 56.0904 20.4413 54.559 20.4413 52.9013C20.4413 51.5281 20.6563 49.7388 21.6798 49.7388C22.646 49.7388 22.8752 51.5281 22.8752 52.9013Z" fill="#C6C6C6"></path>
<path fill-rule="evenodd" clip-rule="evenodd" d="M29.0985 43.9777H26.6735V55.0031C26.6735 55.8769 26.6276 56.984 26.592 57.7923H28.6742L28.8091 56.6252H28.8602C29.3684 57.5752 29.9315 57.9502 30.7772 57.9502C32.5521 57.9502 33.9219 56.1118 33.9219 52.6774C33.9219 49.9593 33.0034 47.8805 31.1753 47.8805C30.2515 47.8805 29.6153 48.3087 29.1376 49.0585H29.0985V43.9777ZM29.1948 54.9335C29.1432 54.781 29.0987 54.5535 29.0987 54.3101V51.5865C29.0987 51.4053 29.143 51.1426 29.1893 50.9739C29.3226 50.4374 29.71 49.938 30.17 49.938C31.0974 49.938 31.4973 51.1298 31.4973 52.8603C31.4973 54.7612 31.1188 55.95 30.1807 55.95C29.8504 55.95 29.4381 55.7493 29.1948 54.9335Z" fill="#C6C6C6"></path>
<path fill-rule="evenodd" clip-rule="evenodd" d="M39.3958 56.0392C38.2447 56.0392 37.3173 55.4651 37.2887 53.7011L41.8933 53.7149C41.936 53.4309 41.9627 53.0666 41.9627 52.4199C41.9627 49.5952 40.8097 47.8647 38.7293 47.8647C36.5761 47.8647 34.9274 49.8227 34.9274 53.0828C34.9274 56.1205 36.3488 57.8991 38.9514 57.8991C39.9037 57.8991 40.8969 57.7249 41.5401 57.448L41.2132 55.7034C40.7512 55.8772 40.1258 56.0392 39.3958 56.0392ZM38.575 49.6571C39.3442 49.6571 39.746 50.6169 39.7334 51.9865H37.2976C37.3241 50.9419 37.6973 49.6571 38.575 49.6571Z" fill="#C6C6C6"></path>
<path d="M26.4516 0H41.9647V37.1397L26.4516 0Z" fill="#C6C6C6"></path>
<path d="M15.522 0H0V37.1397L15.522 0Z" fill="#C6C6C6"></path>
<path d="M14.2038 29.6673L20.9886 13.6849L30.8716 37.1376H24.3961L21.4397 29.6673H14.2038Z" fill="#C6C6C6"></path>
</svg>