<svg width="160" height="28" viewBox="0 0 160 28" fill="none" xmlns="http://www.w3.org/2000/svg">
<path fill-rule="evenodd" clip-rule="evenodd" d="M34.9093 24.194H27.7305C28.6351 23.3955 28.8743 20.2853 29.2727 14.8075L29.3523 13.5318C29.5658 10.4208 29.725 8.02786 29.6985 6.35377C29.6719 4.91726 29.5119 3.98653 29.1127 3.66771H37.1423C39.0568 3.66771 42.8859 3.77425 42.8859 7.7617C42.8859 10.4208 40.4125 12.0692 38.153 12.6558C41.3436 12.9746 43.7366 14.516 43.7366 17.8128C43.7358 21.3753 40.386 24.194 34.9093 24.194ZM34.5905 14.2764H33.1283L32.9156 17.3074C32.8095 18.6378 32.7556 19.7534 32.7291 21.083C32.7291 21.27 33.314 21.6684 34.6954 21.6684C37.5672 21.6684 39.456 20.2331 39.456 17.8658C39.456 15.2333 37.3015 14.2764 34.5905 14.2764ZM35.2539 6.14109C34.8546 6.14109 34.3236 6.14109 33.8186 6.19456C33.6055 7.63026 33.472 9.01247 33.3671 10.5278C33.3671 10.5278 33.2867 11.8296 33.2867 11.7769H33.8186C36.4242 11.7769 38.818 10.8731 38.818 8.48179C38.818 7.09753 37.6742 6.14109 35.2539 6.14109ZM60.5665 24.3793C58.8128 24.3793 58.6797 24.3275 57.2706 19.4885L56.7652 17.7066C55.9128 18.1051 54.3979 18.2916 51.9785 18.2916H49.5324L49.1075 19.195C48.6817 20.1535 47.6448 22.1215 47.6714 23.2645C47.6714 23.5306 47.6975 23.7964 47.8045 24.1948H42.8859C44.295 22.7861 46.0769 19.5159 48.549 14.2246L49.9855 11.167C51.2878 8.40219 52.6708 5.26465 52.6708 4.81234C52.6708 4.41229 52.5659 4.04123 52.405 3.66853H56.873C56.873 3.66853 58.0409 8.10909 59.079 11.8043L59.9558 15.0488C61.4719 20.4997 62.4284 23.1579 63.7049 24.1948C62.5619 24.3275 61.1253 24.3793 60.5665 24.3793ZM54.1073 8.48179L50.7816 15.6325H56.1786L54.1073 8.48179ZM80.002 25.0721C78.4871 25.0721 78.114 24.8316 77.6099 24.1401L71.8663 16.1636C71.414 15.5521 71.0687 15.0467 70.3514 15.0467H70.2179L70.1126 16.5894C69.9787 18.69 69.8991 20.3666 69.8991 21.6153C69.9257 22.9979 70.0853 23.8478 70.458 24.194H64.9009C65.6978 23.4759 65.9892 21.083 66.4423 14.8075L66.5228 13.5053C66.7358 10.4216 66.8955 8.02786 66.8681 6.35377C66.8408 4.89113 66.6828 3.98653 66.2827 3.66771H73.86C76.3326 3.66771 79.7359 4.09429 79.7359 8.10828C79.7359 11.4038 77.5287 13.213 74.7912 14.0629C75.0569 14.3029 75.5349 14.9144 75.828 15.2871L80.002 20.8176C82.6077 24.2479 82.8199 24.4067 83.7519 24.8855C82.5815 25.0182 81.0132 25.0721 80.002 25.0721ZM72.5852 6.16721C72.0798 6.16721 71.4671 6.16721 70.9899 6.22028C70.8302 7.09753 70.6968 8.61324 70.5102 11.0584L70.4033 12.4958C70.671 12.5497 71.0156 12.577 71.3352 12.577C73.8866 12.577 75.6427 11.0327 75.6427 8.69447C75.6427 7.09753 74.5258 6.16721 72.5852 6.16721ZM90.9308 24.5932C85.6395 24.5932 82.5815 20.2331 82.5815 15.341C82.5815 8.53486 86.2763 3.26807 93.3229 3.26807C95.5297 3.26807 96.5674 3.66771 98.3476 3.66771L97.8166 8.90593C96.8058 7.071 95.1566 5.82105 92.951 5.82105C88.5643 5.82105 86.7825 10.5551 86.7825 14.623C86.7825 19.0362 89.2559 21.4549 92.5518 21.4549C94.3337 21.4549 95.9016 20.976 98.5346 19.1419C97.4712 22.5464 94.9978 24.5932 90.9308 24.5932ZM127.117 24.3793C125.36 24.3793 125.229 24.3275 123.819 19.4885L123.314 17.7066C122.465 18.1051 120.947 18.2916 118.529 18.2916H116.083L115.657 19.195C115.046 20.5527 114.221 22.1456 114.221 23.2645C114.221 23.5306 114.248 23.8221 114.355 24.1948H99.8368C100.662 23.2645 100.928 20.2604 101.326 14.8083L101.406 13.5061C101.619 10.3951 101.78 8.00214 101.752 6.32805C101.725 4.94583 101.592 4.06776 101.22 3.66934H106.831C106.033 4.28126 105.739 7.57719 105.368 13.0293L105.262 14.3311C105.128 16.3526 104.863 18.4255 104.863 20.4466C104.863 21.3761 105.235 21.5888 106.194 21.5888C109.595 21.5888 110.448 21.5096 111.988 20.4723C112.945 18.7174 114.037 16.5098 115.098 14.2237L116.536 11.1662C117.892 8.29442 119.22 5.36874 119.22 4.81153C119.22 4.41148 119.114 4.04041 118.956 3.66771H123.422C123.422 3.66771 125.23 10.3686 125.629 11.803L126.505 15.0479C128.02 20.4988 128.978 23.1571 130.255 24.194C129.19 24.3275 127.675 24.3793 127.117 24.3793ZM120.655 8.48179L117.359 15.6325H122.729L120.655 8.48179ZM139.985 13.1326C139.505 13.9311 138.896 15.0194 138.522 15.8191C138.203 17.3339 138.044 19.3558 138.044 21.588C138.044 22.5191 138.203 23.7682 138.628 24.194H133.072C134.055 23.2637 134.455 17.5487 134.402 15.7395C133.658 13.1608 132.645 10.6874 131.104 7.68251C130.123 5.79533 128.978 4.01224 128.26 3.66771C129.509 3.56239 131.104 3.48197 131.876 3.48197C133.258 3.48197 133.631 3.66771 134.483 5.52958C135.81 8.53486 136.794 10.7927 137.38 12.4692C138.789 10.2616 139.773 8.74672 141.049 6.67258C141.368 6.16721 141.634 5.52958 141.634 4.91726C141.634 4.43801 141.553 3.90692 141.341 3.66771H146.845C145.782 3.90692 140.995 11.432 139.985 13.1326ZM158.57 8.53404C157.718 6.99058 155.883 5.82023 153.889 5.82023C152.136 5.82023 150.593 6.53828 150.593 8.40056C150.593 9.96851 152.535 11.0319 154.556 12.3358C156.762 13.7184 159.05 15.4186 159.05 18.3716C159.05 22.2276 155.301 24.5932 150.966 24.5932C149.184 24.5932 147.324 24.2479 145.223 23.4502L145.568 18.3177C146.58 20.3666 148.468 21.9872 151.258 21.9872C153.412 21.9872 155.007 20.9511 155.007 19.1419C155.007 17.5997 153.703 16.6432 152.109 15.6864C148.758 13.6661 146.633 12.0427 146.633 9.11861C146.633 4.73029 150.301 3.26807 154.103 3.26807C156.309 3.26807 157.693 3.66771 159.101 3.66771L158.57 8.53404Z" fill="#C6C6C6"></path>
<path fill-rule="evenodd" clip-rule="evenodd" d="M11.9822 0.63884C11.2711 0.63884 11.1238 0.762937 10.8931 1.02011C10.8025 1.01399 10.7074 1.01236 10.6082 1.01236C10.0612 1.01236 9.35823 1.09278 8.75897 1.49364C8.18012 1.87614 7.90498 2.55215 8.21359 3.04731C8.21359 3.04731 8.42056 2.7436 9.10105 2.7436C9.19698 2.7436 9.30271 2.7538 9.41578 2.76319C10.3563 2.87464 11.0519 3.36939 10.9674 4.67691C10.8923 5.98319 10.4024 7.44011 8.3981 7.45726C8.3981 7.45726 8.14011 7.45726 7.86497 7.43154C6.9322 7.32949 6.6387 6.74411 6.6387 6.74411C6.6387 6.74411 7.44492 6.5253 7.45186 5.50191C7.44492 4.8059 6.83872 4.16909 5.96432 3.9115C5.67776 3.82782 5.36302 3.78659 5.03563 3.78659C4.00489 3.78659 2.84719 4.21848 2.06668 5.23779C0.296662 7.57401 0.15297 10.9802 0.584862 14.1479C1.0192 17.3222 3.03252 20.2626 3.09171 20.343C3.13417 20.3993 3.17295 20.4299 3.21663 20.4299C3.23867 20.4299 3.26194 20.4197 3.28561 20.4001C4.15511 19.5564 4.98461 18.4031 5.33935 17.632C5.71899 17.9345 5.52059 18.5783 5.312 19.2657C5.1136 19.9682 4.6315 20.901 4.45678 21.2019C4.2886 21.4962 4.06286 21.8383 4.36616 22.0167C4.39719 22.0359 4.43637 22.0461 4.48332 22.0461C4.87316 22.0461 5.79083 21.3664 6.81423 20.0017C7.95968 18.4664 8.54098 17.1034 8.54098 17.1034C8.62466 17.1222 8.76509 17.2642 8.74182 17.6508C8.72672 18.0431 8.32299 19.5033 7.53718 20.8626C6.7432 22.2212 6.00964 23.0711 5.86145 23.2642C5.77001 23.3764 5.84798 23.4462 5.90677 23.4915C5.96514 23.5311 7.36981 24.8423 9.41048 25.9506C11.8283 27.239 12.9003 27.4704 12.9003 27.4704C12.9003 27.4704 13.9698 27.2451 16.3877 25.9572C18.4275 24.8476 19.8383 23.5299 19.8906 23.4858C19.9494 23.4454 20.0249 23.3821 19.9359 23.2593C19.7963 23.0744 19.0603 22.2204 18.2679 20.8618C17.4846 19.5119 17.0657 18.0423 17.0596 17.6549C17.0437 17.2642 17.1751 17.1352 17.2556 17.1026C17.2556 17.1026 17.843 18.4738 18.9884 20.0009C20.0171 21.3672 20.9258 22.0452 21.3173 22.0452C21.3671 22.0452 21.4063 22.0346 21.439 22.0159C21.7329 21.8375 21.5141 21.4901 21.3414 21.1994C21.1806 20.9002 20.6915 19.9735 20.4837 19.2649C20.2845 18.5697 20.0776 17.9268 20.4641 17.6308C20.8197 18.4023 21.6431 19.5613 22.5154 20.3932C22.5383 20.4173 22.5648 20.4291 22.5905 20.4291C22.6289 20.4291 22.6701 20.3993 22.7061 20.3471C22.7701 20.2617 24.7867 17.3267 25.2178 14.1471C25.6505 10.9728 25.5076 7.57401 23.736 5.23657C22.9608 4.21521 21.7945 3.78087 20.7564 3.78087C20.4327 3.78087 20.1233 3.82251 19.84 3.90375C18.9586 4.16909 18.3549 4.81203 18.3602 5.50109C18.3602 6.52449 19.1705 6.74329 19.1705 6.74329C19.1705 6.74329 18.8994 7.31438 17.9336 7.43073C17.7532 7.45277 17.5781 7.46298 17.4103 7.46298C16.6837 7.46298 16.0713 7.23233 15.5072 6.4355C14.9602 5.66846 14.9781 4.08948 14.9463 3.56289C14.9214 3.02853 14.8071 1.8296 14.2454 1.34056C13.6853 0.838865 13.0032 0.670272 12.1525 0.637207C12.09 0.63884 12.0345 0.63884 11.9822 0.63884Z" fill="#C6C6C6"></path>
</svg>