<svg width="54" height="54" viewBox="0 0 54 54" fill="none" xmlns="http://www.w3.org/2000/svg">
<path fill-rule="evenodd" clip-rule="evenodd" d="M26.8644 0.257568C12.1168 0.257568 0.161133 12.2132 0.161133 26.9608C0.161133 41.7084 12.1168 53.6642 26.8644 53.6642C41.6121 53.6642 53.5677 41.7084 53.5677 26.9608C53.5677 12.2132 41.6121 0.257568 26.8644 0.257568Z" fill="#C6C6C6"></path>
<path fill-rule="evenodd" clip-rule="evenodd" d="M26.8646 44.0783C17.411 44.0783 9.74707 36.4145 9.74707 26.9608C9.74707 17.5072 17.411 9.84326 26.8646 9.84326C36.3182 9.84326 43.9821 17.5072 43.9821 26.9608C43.9821 36.4145 36.3183 44.0783 26.8646 44.0783Z" fill="white"></path>
<path fill-rule="evenodd" clip-rule="evenodd" d="M11.1162 27.1321H27.0355V11.2129C18.2436 11.2129 11.1162 18.3404 11.1162 27.1321ZM27.0355 27.1321V43.0514C35.8273 43.0514 42.9548 35.924 42.9548 27.1321H27.0355Z" fill="#C6C6C6"></path>
<path d="M14.4261 10.8627C13.8584 10.3178 12.9809 10.1536 12.1571 10.658C12.3145 10.2553 12.2502 9.84441 12.1666 9.61767C11.8118 8.97866 11.6879 8.89868 11.3954 8.65634C10.4485 7.87183 9.45205 8.5416 8.73935 9.38027L5.2959 13.4323L10.7089 17.9173L14.3403 13.6442C15.17 12.6678 15.2983 11.6998 14.4261 10.8627ZM27.9082 8.93724L29.7672 4.07194V8.93724H31.18V1.96924H29.0572L27.1265 6.95823H27.1465L25.2157 1.96924H23.093V8.93724H24.5058V4.07194L26.3648 8.93724H27.9082ZM46.9034 11.8362L44.2434 15.5547L48.3672 13.6216L49.459 14.953L42.9684 18.0597L41.687 16.4846L44.2399 12.7986L44.2248 12.7802L40.0427 14.4795L38.7487 12.9144L43.1758 7.29145L44.2677 8.62284L41.4954 12.2038L45.732 10.4078L46.9034 11.8362Z" fill="white"></path>
<path d="M9.39412 10.3871C9.63088 10.1102 10.1659 10.1216 10.51 10.4048C10.8884 10.7162 10.8893 11.1576 10.6352 11.4545L8.61473 13.8164L7.35059 12.7758L9.39412 10.3871ZM12.989 13.1733L10.8587 15.6634L9.52295 14.564L11.6704 12.0536C11.9129 11.7701 12.4536 11.6875 12.8182 11.9878C13.231 12.3274 13.2719 12.8426 12.989 13.1733Z" fill="#C6C6C6"></path>
</svg>