<svg width="44" height="53" viewBox="0 0 44 53" fill="none" xmlns="http://www.w3.org/2000/svg">
<path fill-rule="evenodd" clip-rule="evenodd" d="M43.2288 25.1728V18.9878H0.474609V25.1728H16.7762V41.6669L8.69419 42.7248C7.64593 42.8363 5.68699 41.1937 7.09429 39.1591L9.63239 35.482L0.474609 28.2653L2.51472 45.7898L21.851 52.0037L41.2148 45.7898L43.2288 28.2653L34.071 35.482L36.5541 39.0752C38.0976 41.3052 36.195 42.8652 35.0367 42.7248L26.9547 41.6669V25.1728H43.2288Z" fill="#C6C6C6"></path>
<path fill-rule="evenodd" clip-rule="evenodd" d="M35.2857 11.6816C35.8649 12.3502 35.8649 12.712 35.2032 13.1302L31.0377 15.8059L26.6246 12.9913C26.0729 12.657 26.0729 12.2388 26.6246 11.6816L29.5492 8.70057L21.8524 0.760254L14.2945 8.70057L16.9702 11.6816C17.5768 12.3502 17.5493 12.712 16.8876 13.1302L12.6946 15.8059L8.28149 12.9913C7.72985 12.657 7.72985 12.2388 8.309 11.6816L11.2598 8.67168L0.474609 1.79062L2.51609 17.2544H41.1887L43.2027 1.79062L32.6101 8.70057L35.2857 11.6816Z" fill="#C6C6C6"></path>
</svg>