<svg width="54" height="54" viewBox="0 0 54 54" fill="none" xmlns="http://www.w3.org/2000/svg">
<g id="lg">
<path id="path2496" fill-rule="evenodd" clip-rule="evenodd" d="M26.7626 53.5381C41.5469 53.5381 53.5317 41.5341 53.5317 26.7723C53.5317 11.9832 41.5469 1.52588e-05 26.7626 1.52588e-05C11.98 1.52588e-05 0 11.9832 0 26.7723C0 41.5341 11.98 53.5381 26.7626 53.5381Z" fill="#C6C6C6"></path>
<path id="path2498" fill-rule="evenodd" clip-rule="evenodd" d="M25.7143 15.0445L25.7143 38.5381H33.1689V36.4277H27.8696L27.8696 15.0445H25.7143Z" fill="white"></path>
<path id="path2500" fill-rule="evenodd" clip-rule="evenodd" d="M18.2129 21.3952C19.9804 21.3952 21.4355 19.9594 21.4355 18.1871C21.4355 16.4052 19.9804 14.9661 18.2129 14.9661C16.4454 14.9661 15 16.4052 15 18.1871C15 19.9594 16.4454 21.3952 18.2129 21.3952Z" fill="white"></path>
<path id="path2502" fill-rule="evenodd" clip-rule="evenodd" d="M27.7713 4.43969C27.4781 4.43167 26.9701 4.43167 26.6945 4.43167C14.3379 4.43167 4.28571 14.4631 4.28571 26.826C4.28571 32.8048 6.62209 38.4374 10.8414 42.6631C15.0815 46.8984 20.6949 49.2524 26.6945 49.2524C32.6812 49.2524 38.3027 46.8984 42.5395 42.6631C46.7588 38.4374 49.0824 32.8048 49.0824 26.826V25.802L33.0915 25.802V27.882H46.9607C46.9607 27.9237 46.9511 28.1528 46.9511 28.1993C46.2685 38.7771 37.4197 47.1259 26.6945 47.1259C21.2782 47.1259 16.1567 45.0235 12.3284 41.1984C8.49536 37.3654 6.3721 32.2519 6.3721 26.8244C6.3721 21.4017 8.49536 16.2979 12.3284 12.4664C16.1567 8.6253 21.2782 6.51006 26.6945 6.51006C26.9348 6.51006 27.5053 6.52288 27.7713 6.52768L27.7713 4.43969Z" fill="white"></path>
</g>
</svg>