<svg width="191" height="26" viewBox="0 0 191 26" fill="none" xmlns="http://www.w3.org/2000/svg">
<g id="mastercard">
<path id="Path" fill-rule="evenodd" clip-rule="evenodd" d="M27.6232 24.7262V13.9433C27.7521 12.1087 27.0744 10.3082 25.763 9.00099C24.4516 7.6938 22.6333 7.00637 20.772 7.11408C18.3192 6.95548 15.9732 8.12618 14.6498 10.1693C13.4432 8.18709 11.2338 7.0148 8.89189 7.11408C6.8528 7.01241 4.91161 7.98339 3.78999 9.66605V7.5454H0V24.7262H3.82643V15.2732C3.66164 14.0836 4.04377 12.8836 4.86854 12.0006C5.69332 11.1176 6.87465 10.6437 8.09017 10.7084C10.6047 10.7084 11.8802 12.3258 11.8802 15.2372V24.7981H15.7066V15.2732C15.5485 14.085 15.933 12.8888 16.7563 12.0075C17.5795 11.1261 18.7567 10.6503 19.9703 10.7084C22.5577 10.7084 23.7967 12.3258 23.7967 15.2372V24.7981L27.6232 24.7262Z" fill="#C6C6C6"></path>
<path id="Path_2" fill-rule="evenodd" clip-rule="evenodd" d="M84.2361 7.54543H78.0045V2.33368H74.1781V7.54543H70.7161V10.96H74.251V18.8675C74.251 22.8572 75.818 25.2295 80.3004 25.2295C81.975 25.235 83.6172 24.774 85.0378 23.8996L83.9446 20.7006C82.9282 21.2986 81.7747 21.6325 80.5919 21.6711C78.7698 21.6711 78.0774 20.5209 78.0774 18.7956V10.96H84.2726L84.2361 7.54543Z" fill="#C6C6C6"></path>
<path id="Path_3" fill-rule="evenodd" clip-rule="evenodd" d="M116.56 7.11412C114.678 7.05952 112.916 8.02493 111.969 9.63014V7.54544H108.215V24.7263H112.005V15.0935C112.005 12.254 113.244 10.6725 115.649 10.6725C116.46 10.6616 117.265 10.8081 118.018 11.1038L119.184 7.5095C118.319 7.2041 117.407 7.04609 116.487 7.04224L116.56 7.11412Z" fill="#C6C6C6"></path>
<path id="Path_4" fill-rule="evenodd" clip-rule="evenodd" d="M67.6914 8.91127C65.5461 7.65322 63.0795 7.02943 60.5851 7.11411C56.1756 7.11411 53.2967 9.19882 53.2967 12.6134C53.2967 15.417 55.4103 17.1423 59.3097 17.6814L61.1318 17.933C63.209 18.2205 64.1929 18.7597 64.1929 19.7302C64.1929 21.0601 62.8081 21.8149 60.2207 21.8149C58.1395 21.8743 56.0986 21.2413 54.4264 20.0177L52.6043 22.9291C54.812 24.4495 57.4562 25.2306 60.1478 25.1576C65.1768 25.1576 68.0922 22.8213 68.0922 19.5504C68.0922 16.2796 65.7964 14.9497 62.0064 14.4106L60.1843 14.159C58.5444 13.9433 57.2325 13.6198 57.2325 12.4696C57.2325 11.3195 58.4715 10.4568 60.5487 10.4568C62.4686 10.4788 64.3507 10.9862 66.015 11.9305L67.6914 8.91127Z" fill="#C6C6C6"></path>
<path id="Path_5" fill-rule="evenodd" clip-rule="evenodd" d="M169.201 7.11412C167.319 7.05952 165.557 8.02493 164.609 9.63014V7.54544H160.856V24.7263H164.646V15.0935C164.646 12.254 165.885 10.6725 168.29 10.6725C169.101 10.6616 169.906 10.8081 170.659 11.1038L171.825 7.5095C170.959 7.2041 170.047 7.04609 169.128 7.04224L169.201 7.11412Z" fill="#C6C6C6"></path>
<path id="Path_6" fill-rule="evenodd" clip-rule="evenodd" d="M120.369 16.0999C120.277 18.5412 121.234 20.9074 123.002 22.6177C124.771 24.3279 127.188 25.2239 129.661 25.0857C131.937 25.1999 134.173 24.4689 135.929 23.0369L134.107 20.0177C132.797 21.0031 131.199 21.5452 129.552 21.5633C126.647 21.3314 124.409 18.9385 124.409 16.064C124.409 13.1894 126.647 10.7965 129.552 10.5647C131.199 10.5828 132.797 11.1248 134.107 12.1102L135.929 9.091C134.173 7.65903 131.937 6.92805 129.661 7.04224C127.188 6.90402 124.771 7.8 123.002 9.51026C121.234 11.2205 120.277 13.5867 120.369 16.028V16.0999Z" fill="#C6C6C6"></path>
<path id="Exclude" fill-rule="evenodd" clip-rule="evenodd" d="M155.863 16.0999V7.54544H152.073V9.63015C150.767 7.97308 148.733 7.03676 146.607 7.11413C141.575 7.11413 137.496 11.1372 137.496 16.0999C137.496 21.0626 141.575 25.0857 146.607 25.0857C148.733 25.1631 150.767 24.2267 152.073 22.5697V24.6544H155.863V16.0999ZM147.215 11.2155C150.077 11.3214 152.329 13.6647 152.283 16.4895C152.236 19.3144 149.909 21.5846 147.045 21.5993C145.586 21.6175 144.186 21.034 143.183 19.9898C142.179 18.9456 141.664 17.5355 141.761 16.1C141.929 13.2797 144.352 11.1095 147.215 11.2155Z" fill="#C6C6C6"></path>
<path id="Exclude_2" fill-rule="evenodd" clip-rule="evenodd" d="M96.0249 7.11407C90.9933 7.18355 86.9715 11.2629 87.0419 16.2257C87.1124 21.1884 91.2484 25.1551 96.28 25.0856C98.9016 25.2184 101.48 24.3857 103.514 22.7493L101.692 19.9817C100.253 21.1198 98.4704 21.7522 96.6262 21.7789C94.0213 21.9998 91.7112 20.1357 91.415 17.5735H104.352C104.352 17.1063 104.352 16.639 104.352 16.1358C104.352 10.7443 100.963 7.15002 96.0796 7.15002L96.0249 7.11407ZM96.0253 10.4568C97.1706 10.4327 98.2788 10.8585 99.1058 11.6405C99.9328 12.4224 100.411 13.4965 100.435 14.6262H91.3242C91.4615 12.2267 93.5171 10.3748 95.9524 10.4568H96.0253Z" fill="#C6C6C6"></path>
<path id="Exclude_3" fill-rule="evenodd" clip-rule="evenodd" d="M190.975 16.1358V0.644348H187.331V9.63013C186.025 7.97306 183.991 7.03675 181.864 7.11411C176.833 7.11411 172.754 11.1372 172.754 16.0999C172.754 21.0626 176.833 25.0857 181.864 25.0857C183.991 25.163 186.025 24.2267 187.331 22.5697V24.6544H190.975V16.1358ZM182.418 11.2513C185.28 11.3573 187.532 13.7005 187.486 16.5254C187.439 19.3503 185.112 21.6205 182.248 21.6352C180.789 21.6534 179.389 21.0699 178.386 20.0257C177.383 18.9815 176.867 17.5714 176.964 16.1359C177.132 13.3155 179.556 11.1454 182.418 11.2513Z" fill="#C6C6C6"></path>
<path id="Exclude_4" fill-rule="evenodd" clip-rule="evenodd" d="M48.9967 16.1359V7.54544H45.2068V9.63015C43.901 7.97308 41.8668 7.03676 39.7404 7.11413C34.7088 7.11413 30.6299 11.1372 30.6299 16.0999C30.6299 21.0626 34.7088 25.0857 39.7404 25.0857C41.8668 25.1631 43.901 24.2267 45.2068 22.5697V24.6544H48.9967V16.1359ZM34.8937 16.1359C35.0622 13.3155 37.4855 11.1454 40.348 11.2513C43.2104 11.3573 45.462 13.7005 45.4157 16.5254C45.3694 19.3503 43.0422 21.6205 40.1778 21.6352C38.713 21.6635 37.3033 21.0845 36.2919 20.0391C35.2804 18.9937 34.76 17.5777 34.8573 16.1359H34.8937Z" fill="#C6C6C6"></path>
</g>
</svg>