<svg width="161" height="34" viewBox="0 0 161 34" fill="none" xmlns="http://www.w3.org/2000/svg">
<path d="M10.4466 6.9668C12.2595 6.9668 13.9606 7.42003 15.5498 8.32649C17.1508 9.23294 18.3987 10.4631 19.2934 12.0171C20.1881 13.571 20.6354 15.2485 20.6354 17.0497C20.6354 18.8626 20.1822 20.5578 19.2757 22.1353C18.381 23.7127 17.1567 24.9488 15.6028 25.8435C14.0489 26.7264 12.336 27.1679 10.4642 27.1679C7.70954 27.1679 5.35511 26.1908 3.40092 24.2366C1.45851 22.2706 0.487305 19.8868 0.487305 17.085C0.487305 14.0831 1.588 11.5815 3.7894 9.58022C5.72004 7.83794 7.9391 6.9668 10.4466 6.9668ZM10.5172 11.505C9.02214 11.505 7.77429 12.0288 6.77365 13.0766C5.78479 14.1125 5.29036 15.4428 5.29036 17.0673C5.29036 18.739 5.7789 20.0928 6.756 21.1287C7.74486 22.1647 8.99271 22.6827 10.4996 22.6827C12.0064 22.6827 13.2601 22.1588 14.2608 21.1111C15.2614 20.0634 15.7617 18.7154 15.7617 17.0673C15.7617 15.4192 15.2673 14.0831 14.2784 13.0589C13.3013 12.023 12.0476 11.505 10.5172 11.505Z" fill="#C6C6C6"></path>
<path d="M29.3763 7.46123V9.58022C30.2474 8.70908 31.1892 8.05573 32.2016 7.62015C33.214 7.18458 34.297 6.9668 35.4507 6.9668C37.9582 6.9668 40.089 7.91446 41.843 9.80978C43.5971 11.7051 44.4741 14.1361 44.4741 17.1027C44.4741 19.9633 43.5676 22.3589 41.7547 24.2896C39.9418 26.2084 37.7934 27.1679 35.3094 27.1679C34.2029 27.1679 33.1728 26.9736 32.2192 26.5852C31.2657 26.1849 30.318 25.5374 29.3763 24.6427V33.7014H24.5909V7.46123H29.3763ZM34.4442 11.4167C32.9256 11.4167 31.666 11.9347 30.6653 12.9706C29.6647 14.0066 29.1644 15.3604 29.1644 17.032C29.1644 18.739 29.6647 20.1222 30.6653 21.1817C31.666 22.2294 32.9256 22.7533 34.4442 22.7533C35.9157 22.7533 37.1518 22.2177 38.1524 21.1464C39.1648 20.0751 39.671 18.7096 39.671 17.0497C39.671 15.4016 39.1766 14.0537 38.1877 13.0059C37.1989 11.9464 35.951 11.4167 34.4442 11.4167Z" fill="#C6C6C6"></path>
<path d="M53.2503 7.46123V9.58022C54.1214 8.70908 55.0632 8.05573 56.0756 7.62015C57.088 7.18458 58.171 6.9668 59.3247 6.9668C61.8322 6.9668 63.963 7.91446 65.717 9.80978C67.4711 11.7051 68.3481 14.1361 68.3481 17.1027C68.3481 19.9633 67.4416 22.3589 65.6287 24.2896C63.8158 26.2084 61.6674 27.1679 59.1834 27.1679C58.0769 27.1679 57.0468 26.9736 56.0933 26.5852C55.1397 26.1849 54.192 25.5374 53.2503 24.6427V33.7014H48.4649V7.46123H53.2503ZM58.3182 11.4167C56.7996 11.4167 55.54 11.9347 54.5393 12.9706C53.5387 14.0066 53.0384 15.3604 53.0384 17.032C53.0384 18.739 53.5387 20.1222 54.5393 21.1817C55.54 22.2294 56.7996 22.7533 58.3182 22.7533C59.7897 22.7533 61.0258 22.2177 62.0264 21.1464C63.0388 20.0751 63.545 18.7096 63.545 17.0497C63.545 15.4016 63.0506 14.0537 62.0617 13.0059C61.0729 11.9464 59.825 11.4167 58.3182 11.4167Z" fill="#C6C6C6"></path>
<path d="M72.708 0.0446777H75.1802V26.6734H72.708V0.0446777Z" fill="#C6C6C6"></path>
<path d="M89.4127 6.96672C92.3676 6.96672 94.8162 8.03799 96.7586 10.1805C98.5244 12.1347 99.4073 14.448 99.4073 17.1202C99.4073 19.8043 98.4714 22.1529 96.5997 24.1659C94.7397 26.1672 92.344 27.1678 89.4127 27.1678C86.4697 27.1678 84.0623 26.1672 82.1905 24.1659C80.3305 22.1529 79.4005 19.8043 79.4005 17.1202C79.4005 14.4597 80.2834 12.1524 82.0492 10.1982C83.9917 8.04388 86.4461 6.96672 89.4127 6.96672ZM89.4127 9.38591C87.3644 9.38591 85.6044 10.1452 84.1329 11.6638C82.6614 13.1824 81.9256 15.0189 81.9256 17.1732C81.9256 18.5623 82.2611 19.8573 82.9322 21.058C83.6032 22.2588 84.5096 23.1888 85.6515 23.848C86.7934 24.4955 88.0472 24.8193 89.4127 24.8193C90.7783 24.8193 92.0321 24.4955 93.174 23.848C94.3159 23.1888 95.2223 22.2588 95.8933 21.058C96.5643 19.8573 96.8999 18.5623 96.8999 17.1732C96.8999 15.0189 96.1582 13.1824 94.6749 11.6638C93.2034 10.1452 91.4493 9.38591 89.4127 9.38591Z" fill="#C6C6C6"></path>
<path d="M123.158 7.46116V26.6734H120.721V23.3713C119.685 24.6309 118.519 25.5786 117.225 26.2143C115.941 26.85 114.535 27.1678 113.004 27.1678C110.285 27.1678 107.96 26.1848 106.029 24.2189C104.11 22.2411 103.151 19.8396 103.151 17.0143C103.151 14.2478 104.122 11.8816 106.065 9.91566C108.007 7.9497 110.344 6.96672 113.075 6.96672C114.652 6.96672 116.077 7.30223 117.348 7.97325C118.631 8.64426 119.756 9.65079 120.721 10.9928V7.46116H123.158ZM113.269 9.35059C111.892 9.35059 110.62 9.69199 109.455 10.3748C108.289 11.0458 107.359 11.9935 106.665 13.2178C105.982 14.4421 105.641 15.737 105.641 17.1026C105.641 18.4564 105.988 19.7513 106.683 20.9874C107.377 22.2235 108.307 23.1888 109.473 23.8834C110.65 24.5662 111.909 24.9075 113.251 24.9075C114.605 24.9075 115.888 24.5662 117.101 23.8834C118.313 23.2006 119.243 22.2765 119.891 21.111C120.55 19.9456 120.88 18.633 120.88 17.1732C120.88 14.9483 120.144 13.0883 118.673 11.5932C117.213 10.0981 115.412 9.35059 113.269 9.35059Z" fill="#C6C6C6"></path>
<path d="M128.738 7.46116H131.21V10.9045C132.199 9.58604 133.294 8.60306 134.494 7.95559C135.695 7.29635 137.002 6.96672 138.414 6.96672C139.851 6.96672 141.122 7.33166 142.229 8.06154C143.347 8.79142 144.171 9.77439 144.701 11.0105C145.231 12.2466 145.495 14.1713 145.495 16.7847V26.6734H143.041V17.5087C143.041 15.2956 142.947 13.8181 142.758 13.0765C142.464 11.8051 141.911 10.8515 141.099 10.2159C140.286 9.56838 139.227 9.24464 137.92 9.24464C136.425 9.24464 135.083 9.73908 133.894 10.7279C132.717 11.7168 131.94 12.9411 131.563 14.4009C131.328 15.3544 131.21 17.0967 131.21 19.6277V26.6734H128.738V7.46116Z" fill="#C6C6C6"></path>
<path d="M160.47 9.56249L158.88 11.2047C157.562 9.92155 156.273 9.27996 155.013 9.27996C154.213 9.27996 153.524 9.54483 152.947 10.0746C152.382 10.6043 152.1 11.2224 152.1 11.9287C152.1 12.5526 152.335 13.1471 152.806 13.7122C153.277 14.289 154.266 14.9659 155.773 15.7429C157.609 16.6964 158.857 17.6147 159.516 18.4976C160.164 19.3923 160.487 20.3988 160.487 21.5172C160.487 23.0946 159.934 24.4308 158.827 25.5256C157.721 26.6204 156.338 27.1678 154.678 27.1678C153.571 27.1678 152.512 26.9265 151.499 26.4438C150.499 25.9612 149.669 25.296 149.009 24.4484L150.563 22.6826C151.823 24.107 153.159 24.8193 154.572 24.8193C155.561 24.8193 156.402 24.5014 157.097 23.8657C157.792 23.23 158.139 22.4825 158.139 21.6231C158.139 20.9168 157.909 20.287 157.45 19.7337C156.991 19.1921 155.955 18.5094 154.342 17.6853C152.612 16.7906 151.435 15.9077 150.811 15.0366C150.187 14.1654 149.875 13.1707 149.875 12.0523C149.875 10.5926 150.369 9.38002 151.358 8.4147C152.359 7.44938 153.618 6.96672 155.137 6.96672C156.903 6.96672 158.68 7.83198 160.47 9.56249Z" fill="#C6C6C6"></path>
</svg>