<svg width="40" height="40" viewBox="0 0 40 40" fill="none" xmlns="http://www.w3.org/2000/svg">
<path fill-rule="evenodd" clip-rule="evenodd" d="M20 39.2273C31.0457 39.2273 40 30.446 40 19.6137C40 8.78134 31.0457 0 20 0C8.9543 0 0 8.78134 0 19.6137C0 30.446 8.9543 39.2273 20 39.2273ZM31.5152 19.6137C31.5152 25.8505 26.3596 30.9064 20 30.9064C13.6404 30.9064 8.48485 25.8505 8.48485 19.6137C8.48485 13.3769 13.6404 8.32095 20 8.32095C26.3596 8.32095 31.5152 13.3769 31.5152 19.6137ZM11.4888 19.6137C11.4888 24.2235 15.2994 27.9605 20 27.9605C24.7006 27.9605 28.5112 24.2235 28.5112 19.6137C28.5112 15.0039 24.7006 11.2669 20 11.2669C15.2994 11.2669 11.4888 15.0039 11.4888 19.6137Z" fill="black"/>
</svg>
