<svg width="130" height="25" viewBox="0 0 130 25" fill="none" xmlns="http://www.w3.org/2000/svg">
<path fill-rule="evenodd" clip-rule="evenodd" d="M121.141 0.542358L116.296 23.921H124.938L129.784 0.542358H121.141Z" fill="#C6C6C6"></path>
<path fill-rule="evenodd" clip-rule="evenodd" d="M99.0113 0.542208H119.393L118.044 6.73642H112.149L108.703 23.9208H99.8606L103.357 6.73642H97.6625L99.0113 0.542208ZM83.4752 14.5294H87.4218V5.68749L83.4752 14.5294ZM82.9258 0.542208H94.7149L96.9629 23.9208H87.7711L87.4218 20.3743H81.0275L79.6787 23.9208H70.6866L82.9258 0.542208ZM65.8412 9.38415C66.5403 6.38709 64.0927 4.78828 61.8446 7.98543C60.8456 9.58377 58.0482 18.7755 61.8446 18.6258C63.3931 18.4262 63.7429 17.3768 64.2923 15.4287H72.9346C71.0364 21.4232 67.0398 24.6204 60.4958 24.6204C57.1989 24.6204 55.1005 23.9208 53.4024 22.3225C50.8046 20.0245 50.6045 15.5784 51.1544 12.4316C52.853 4.28877 58.7473 -0.507178 66.1905 0.0426962C72.5853 0.392492 74.8328 3.38956 74.1337 9.38415H65.8412ZM29.7234 0.542208H38.8653L35.9177 14.7295C35.7679 15.5784 35.0688 18.6258 37.3168 18.276C38.7156 18.0764 39.2151 16.3279 39.5644 14.7295L42.512 0.542208H51.5042L48.7062 13.8299C47.8569 18.4262 46.6583 20.3743 44.4103 22.1224C42.1622 23.9208 39.7146 24.6204 35.9177 24.6204C28.8242 24.6204 25.2274 22.3225 26.926 13.8299L29.7234 0.542208ZM12.589 6.03729L9.99114 18.6258C14.837 18.6258 14.837 17.0275 16.0356 11.732C16.9349 7.98543 16.5855 6.03729 12.589 6.03729ZM4.84586 0.542208H15.0366C16.9349 0.542208 18.8331 0.741829 20.7318 1.44142C24.8776 2.84014 25.7269 6.38709 25.3776 10.483C24.8776 13.4805 24.0287 16.4776 22.1305 18.7755C19.3326 22.6723 14.6868 23.9208 9.99114 23.9208H0L4.84586 0.542208Z" fill="#C6C6C6"></path>
</svg>